<svg width="512" height="512" viewBox="0 0 512 512" fill="none" xmlns="http://www.w3.org/2000/svg">
<path d="M507.007 212.582C499.3 204.555 488.5 199.949 477.378 199.949C467.621 199.949 458.16 203.441 450.738 209.781C450.668 209.84 450.597 209.902 450.531 209.965L415.48 242.246V102.027C428.113 98.457 437.398 86.8398 437.398 73.082C437.398 56.4961 423.906 43 407.32 43C390.734 43 377.238 56.4961 377.238 73.082C377.238 87.3164 387.179 99.2617 400.48 102.367V256.062L388.351 267.234C385.304 270.043 385.109 274.785 387.914 277.832C390.722 280.879 395.464 281.07 398.511 278.269L460.582 221.101C465.273 217.133 471.23 214.949 477.378 214.949C484.539 214.949 491.222 217.801 496.187 222.969C497.195 224.023 497.238 225.644 496.285 226.738L381.84 357.758C376.703 363.636 369.277 367.008 361.465 367.008H212.121C195.058 367.008 178.922 373.316 166.406 384.789L154.101 372.484C151.172 369.554 146.422 369.554 143.496 372.484C140.566 375.414 140.566 380.16 143.496 383.09L160.894 400.488C160.914 400.511 160.933 400.535 160.953 400.554C160.984 400.59 161.019 400.613 161.051 400.644L164.039 403.632C164.074 403.668 164.187 403.781 164.187 403.996C164.187 404.211 164.074 404.324 164.035 404.363L113.594 454.804C113.394 455.007 113.066 455.007 112.863 454.808L15.1484 357.093C15.1133 357.054 15 356.941 15 356.726C15 356.511 15.1133 356.398 15.1523 356.363L65.5937 305.918C65.6288 305.883 65.746 305.765 65.957 305.765C66.1718 305.765 66.2851 305.883 66.3242 305.918L120.539 360.133C123.465 363.058 128.215 363.062 131.141 360.133C134.07 357.203 134.07 352.457 131.141 349.527L87.8827 306.269L133.254 262.39C151.098 245.137 174.598 235.637 199.418 235.637H329.453C334.019 235.637 338.316 237.414 341.539 240.629C344.769 243.867 346.547 248.164 346.547 252.73C346.547 262.152 338.879 269.816 329.453 269.816H277.07C270.945 269.816 265.179 272.203 260.816 276.551C256.484 280.894 254.101 286.66 254.101 292.785C254.101 305.457 264.406 315.761 277.07 315.761H350.394C354.922 315.761 359.308 314.14 362.75 311.199C362.82 311.14 362.886 311.078 362.957 311.015L376.754 298.304C379.8 295.5 379.996 290.754 377.191 287.707C374.386 284.66 369.644 284.469 366.593 287.273L352.922 299.863C352.207 300.445 351.316 300.761 350.398 300.761H277.07C272.676 300.761 269.101 297.183 269.101 292.781C269.101 290.656 269.933 288.648 271.422 287.152C272.937 285.644 274.941 284.812 277.07 284.812H329.453C347.148 284.812 361.547 270.422 361.547 252.73C361.547 244.164 358.215 236.101 352.148 230.023C346.082 223.969 338.019 220.633 329.453 220.633H314.199V102.027C326.828 98.457 336.113 86.8359 336.113 73.082C336.113 56.4961 322.621 43 306.035 43C289.449 43 275.957 56.4961 275.957 73.082C275.957 87.3125 285.898 99.2617 299.199 102.367V220.633H222.687V102.027C235.32 98.457 244.605 86.8359 244.605 73.082C244.605 56.4961 231.109 43 214.523 43C197.937 43 184.445 56.4961 184.445 73.082C184.445 87.3125 194.387 99.2617 207.687 102.367V220.633H199.414C170.683 220.633 143.484 231.633 122.824 251.605L77.2773 295.66L76.9296 295.312C73.9999 292.383 70.1015 290.765 65.957 290.765C61.8124 290.765 57.9179 292.383 54.9843 295.312L4.54687 345.754C1.61328 348.683 0 352.582 0 356.726C0 360.871 1.61328 364.769 4.54297 367.699L102.258 465.414C105.281 468.437 109.254 469.953 113.226 469.953C117.199 469.953 121.176 468.437 124.199 465.414L174.64 414.972C177.574 412.039 179.187 408.144 179.187 404C179.187 400.992 178.328 398.125 176.742 395.652C186.457 386.843 198.937 382.007 212.121 382.007H361.465C373.609 382.007 385.152 376.765 393.136 367.625L507.582 236.601C513.683 229.609 513.437 219.285 507.007 212.582ZM392.238 73.082C392.238 64.7656 399.004 58 407.32 58C415.632 58 422.398 64.7656 422.398 73.082C422.398 81.3945 415.632 88.1601 407.32 88.1601C399.004 88.1601 392.238 81.3945 392.238 73.082ZM290.957 73.082C290.957 64.7656 297.722 58 306.035 58C314.351 58 321.117 64.7656 321.117 73.082C321.117 81.3945 314.351 88.1601 306.035 88.1601C297.722 88.1601 290.957 81.3945 290.957 73.082ZM199.445 73.082C199.445 64.7656 206.211 58 214.527 58C222.84 58 229.605 64.7656 229.605 73.082C229.605 81.3945 222.84 88.1601 214.527 88.1601C206.211 88.1601 199.445 81.3945 199.445 73.082Z" fill="#191919"/>
</svg>
