<svg width="1920" height="1440" viewBox="0 0 1920 1440" fill="none" xmlns="http://www.w3.org/2000/svg">
<g clip-path="url(#clip0_27_23)">
<rect width="1920" height="1440" fill="#FAF3EB"/>
<path opacity="0.05" d="M308.411 1147.95C285.347 1185.63 241.603 1200.06 153.074 1160C64.5442 1119.94 42.9345 1154.53 -23.9523 1132.62C-153.037 1090.37 -80.6625 969.749 -39.3995 935.154C30.1677 876.839 57.4633 759.525 146.527 722.14C232.203 686.182 394.838 744.774 431.962 848.796C452.9 907.481 435.361 944.089 368.761 980.699C291.288 1023.29 346.285 1086.07 308.411 1147.95Z" fill="#B97456"/>
<path opacity="0.05" d="M1406.38 805.76C1332.27 764.396 1264.14 708.654 1228.73 634.807C1192.88 561.455 1189.33 470.492 1229.69 408.574C1270.56 347.086 1355.34 314.643 1421.1 263.052C1486.89 211.923 1534.08 141.152 1598.14 118.532C1661.7 95.4809 1742.12 120.581 1793.12 171.004C1843.69 221.921 1864.8 297.698 1857.62 361.488C1850.9 425.246 1815.84 476.556 1818.89 553.593C1821.94 630.63 1863.59 733.826 1839.97 795.506C1816.37 857.65 1728 878.71 1643.58 876.226C1559.58 873.247 1480.02 847.156 1406.38 805.76Z" fill="#B97456"/>
</g>
<defs>
<clipPath id="clip0_27_23">
<rect width="1920" height="1440" fill="white"/>
</clipPath>
</defs>
</svg>
