<svg width="512" height="512" viewBox="0 0 512 512" fill="none" xmlns="http://www.w3.org/2000/svg">
<path d="M200.824 45.3086H219.852C223.992 45.3086 227.351 41.9492 227.351 37.8086C227.351 33.668 223.992 30.3086 219.852 30.3086H200.824C196.684 30.3086 193.324 33.668 193.324 37.8086C193.324 41.9492 196.684 45.3086 200.824 45.3086Z" fill="#B97456"/>
<path d="M113.192 170.3C114.657 171.765 116.575 172.496 118.493 172.496C120.415 172.496 122.332 171.765 123.797 170.3L144.379 149.715C147.309 146.785 147.309 142.039 144.379 139.109C141.454 136.179 136.704 136.179 133.774 139.109L118.493 154.39L116.274 152.168C113.344 149.238 108.594 149.238 105.668 152.168C102.739 155.097 102.739 159.847 105.668 162.773L113.192 170.3Z" fill="#B97456"/>
<path d="M175.629 162.203H309.179C313.324 162.203 316.679 158.847 316.679 154.703C316.679 150.562 313.324 147.203 309.179 147.203H175.629C171.488 147.203 168.129 150.562 168.129 154.703C168.129 158.847 171.488 162.203 175.629 162.203Z" fill="#B97456"/>
<path d="M113.192 217.007C114.657 218.472 116.575 219.203 118.493 219.203C120.415 219.203 122.332 218.472 123.797 217.007L144.379 196.425C147.309 193.496 147.309 188.746 144.379 185.816C141.45 182.89 136.704 182.89 133.774 185.816L118.497 201.097L116.274 198.878C113.344 195.949 108.598 195.949 105.668 198.878C102.739 201.808 102.739 206.554 105.668 209.484L113.192 217.007Z" fill="#B97456"/>
<path d="M175.629 208.914H309.179C313.324 208.914 316.679 205.554 316.679 201.414C316.679 197.269 313.324 193.914 309.179 193.914H175.629C171.488 193.914 168.129 197.269 168.129 201.414C168.129 205.554 171.488 208.914 175.629 208.914Z" fill="#B97456"/>
<path d="M113.192 267.468C114.657 268.929 116.575 269.664 118.493 269.664C120.415 269.664 122.332 268.929 123.797 267.468L144.379 246.882C147.309 243.953 147.309 239.207 144.379 236.277C141.45 233.347 136.704 233.347 133.774 236.277L118.497 251.558L116.274 249.339C113.344 246.41 108.598 246.41 105.668 249.339C102.739 252.265 102.739 257.015 105.668 259.945L113.192 267.468Z" fill="#B97456"/>
<path d="M113.192 317.925C114.657 319.39 116.575 320.121 118.493 320.121C120.415 320.121 122.332 319.39 123.797 317.925L144.379 297.343C147.309 294.414 147.309 289.664 144.379 286.734C141.45 283.808 136.704 283.808 133.774 286.734L118.497 302.015L116.274 299.796C113.344 296.867 108.598 296.867 105.668 299.796C102.739 302.726 102.739 307.472 105.668 310.402L113.192 317.925Z" fill="#B97456"/>
<path d="M388.676 249.933V94.7459C388.676 75.1913 372.769 59.285 353.215 59.285H297.41V50.7108C297.41 40.6757 289.246 32.5077 279.211 32.5077H260.75C257.957 32.5077 255.684 30.2382 255.684 27.4453C255.684 12.3125 243.371 0 228.242 0H192.434C177.305 0 164.992 12.3125 164.992 27.4453C164.992 30.2343 162.723 32.5077 159.93 32.5077H141.465C131.43 32.5077 123.266 40.6718 123.266 50.7108V59.2811H67.4535C47.9028 59.2811 32.0005 75.1913 32.0005 94.7459V403.105C32.0005 407.245 35.3599 410.605 39.5005 410.605C43.645 410.605 47.0005 407.245 47.0005 403.105V94.7459C47.0005 83.4647 56.1762 74.285 67.4535 74.285H123.266V88.3553H77.4184C69.0981 88.3553 62.3325 95.1287 62.3325 103.453V464.308C62.3325 472.628 69.0981 479.397 77.4184 479.397H257.398C264.391 485.421 272.016 490.737 280.148 495.237H67.4535C56.1762 495.237 47.0005 486.058 47.0005 474.776V435.366C47.0005 431.222 43.645 427.866 39.5005 427.866C35.3599 427.866 32.0005 431.222 32.0005 435.366V474.776C32.0005 494.331 47.9028 510.237 67.4535 510.237H323.422C330.496 511.39 337.75 511.999 345.14 511.999C419.386 511.999 479.789 451.601 479.789 377.355C479.789 318.339 441.621 268.074 388.676 249.933ZM77.3324 464.308V103.453C77.3324 103.387 77.3832 103.355 77.4223 103.355H126.957C130.282 107.754 135.539 110.613 141.465 110.613H152.571C156.715 110.613 160.071 107.254 160.071 103.113C160.071 98.9725 156.715 95.6131 152.571 95.6131H141.465C139.699 95.6131 138.266 94.1756 138.266 92.41V66.8046C138.266 66.7967 138.266 66.7889 138.266 66.785C138.266 66.7772 138.266 66.7694 138.266 66.7655V50.7108C138.266 48.9452 139.699 47.5077 141.465 47.5077H159.93C170.992 47.5077 179.992 38.5077 179.992 27.4453C179.992 20.582 185.574 15 192.434 15H228.242C235.102 15 240.684 20.5859 240.684 27.4453C240.684 38.5077 249.684 47.5077 260.75 47.5077H279.211C280.977 47.5077 282.41 48.9452 282.41 50.7108V92.41C282.41 94.1756 280.977 95.6131 279.211 95.6131H184.387C180.242 95.6131 176.887 98.9725 176.887 103.113C176.887 107.254 180.242 110.613 184.387 110.613H279.211C285.137 110.613 290.394 107.754 293.719 103.355H343.258C343.293 103.355 343.344 103.387 343.344 103.453V217.496C343.344 221.64 346.703 224.996 350.844 224.996C354.988 224.996 358.344 221.64 358.344 217.496V103.453C358.344 95.1287 351.578 88.3553 343.258 88.3553H297.41V74.285H353.215C364.496 74.285 373.676 83.4647 373.676 94.7459V245.761C364.476 243.769 354.93 242.71 345.14 242.71C334.496 242.71 324.133 243.957 314.195 246.304C312.863 245.105 311.113 244.371 309.18 244.371H175.629C171.488 244.371 168.129 247.73 168.129 251.871C168.129 256.015 171.488 259.371 175.629 259.371H280.324C264.191 268.269 250.07 280.378 238.824 294.831H176.293C172.149 294.831 168.793 298.191 168.793 302.331C168.793 306.476 172.149 309.831 176.293 309.831H228.691C217.129 329.695 210.496 352.765 210.496 377.355C210.496 410.515 222.555 440.909 242.504 464.398H77.4184C77.3715 464.398 77.3324 464.355 77.3324 464.308ZM345.14 496.999C279.168 496.999 225.496 443.327 225.496 377.355C225.496 311.378 279.168 257.707 345.14 257.707C411.117 257.707 464.789 311.382 464.789 377.355C464.789 443.327 411.117 496.999 345.14 496.999Z" fill="#B97456"/>
<path d="M376.09 325.839C365.898 325.839 356.316 329.808 349.109 337.015L345.14 340.98L341.176 337.019C333.969 329.808 324.387 325.839 314.195 325.839C304 325.839 294.418 329.808 287.207 337.015C272.332 351.894 272.332 376.105 287.207 390.987L334.805 438.585C337.656 441.433 341.398 442.858 345.14 442.858C348.887 442.858 352.629 441.433 355.48 438.585L403.078 390.984C417.957 376.105 417.957 351.894 403.078 337.015C395.871 329.808 386.285 325.839 376.09 325.839ZM392.469 380.378L345.14 427.706L297.816 380.378C288.785 371.347 288.785 356.652 297.816 347.624C302.191 343.249 308.008 340.839 314.195 340.839C320.379 340.839 326.195 343.249 330.57 347.624L337.922 354.972C339.851 356.902 342.414 357.964 345.144 357.964C347.871 357.964 350.433 356.902 352.363 354.976L359.715 347.624C359.715 347.624 359.715 347.624 359.715 347.62C364.09 343.249 369.906 340.839 376.094 340.839C382.281 340.839 388.097 343.249 392.472 347.624C401.5 356.652 401.5 371.347 392.469 380.378Z" fill="#B97456"/>
<path d="M168.172 385.839C164.867 383.347 160.164 384.003 157.668 387.308C155.328 390.406 151.469 392.398 147.551 392.507C146.09 392.546 142.203 392.656 139.445 395.925C138.012 397.62 137.57 399.382 137.356 400.226L135.754 406.577C135.613 407.128 135.289 408.409 134.988 409.132C134.938 409.12 134.883 409.109 134.832 409.093C134.008 408.839 132.969 408.093 131.734 406.882C128.551 403.753 126.25 399.679 125.067 395.32C125.035 391.722 124.75 388.132 124.211 384.597C123.637 380.855 120.41 378.136 116.574 378.238C112.789 378.351 109.68 381.265 109.328 385.038C108.949 389.105 109.211 393.199 110.063 397.159C109.918 405.234 108.199 413.323 105.004 420.671C103.356 424.472 105.098 428.89 108.899 430.538C109.871 430.964 110.883 431.163 111.879 431.163C114.777 431.163 117.535 429.476 118.762 426.648C119.957 423.898 120.984 421.07 121.844 418.179C124.637 420.788 127.445 422.507 130.406 423.421C135.406 424.968 140.637 424.07 144.387 421.027C148.402 417.765 149.586 413.058 150.297 410.249L151.055 407.241C158.371 406.218 165.16 402.277 169.637 396.347C172.133 393.038 171.477 388.335 168.172 385.839Z" fill="#B97456"/>
</svg>
