<svg width="512" height="512" viewBox="0 0 512 512" fill="none" xmlns="http://www.w3.org/2000/svg">
<path d="M504.5 465.199H475.605C482.289 456.07 485.043 444.492 482.914 433C481.762 426.801 479.258 421.102 475.723 416.195C482.059 414.734 488.129 411.863 493.449 407.605C496.461 405.195 498.223 401.598 498.285 397.742C498.348 393.883 496.703 390.23 493.77 387.723L424.352 328.375C419.242 324.004 415.41 318.328 413.273 311.953L397.055 263.523C397.051 263.508 397.043 263.492 397.039 263.477L382.434 219.879C375.812 200.109 359.984 184.578 340.094 178.332L289.797 162.535C303.453 152.906 312.398 137.02 312.398 119.074V84.1641C312.398 54.8477 288.547 31 259.234 31C229.922 31 206.07 54.8477 206.07 84.1641V119.078C206.07 136.195 214.211 151.441 226.816 161.168C225.512 161.527 224.211 161.906 222.914 162.312L171.906 178.332C152.016 184.578 136.188 200.109 129.566 219.879L98.7227 311.953C96.5859 318.328 92.7578 324.008 87.6484 328.375L18.2305 387.727C15.2969 390.234 13.6523 393.883 13.7148 397.742C13.7773 401.602 15.5391 405.195 18.5508 407.605C24.1133 412.059 30.4922 414.996 37.1406 416.387C30.8633 427.937 29.6719 442.023 34.5117 454.793C35.9805 458.656 37.9141 462.137 40.2422 465.203H7.5C3.35547 465.203 0 468.559 0 472.703C0 476.844 3.35547 480.203 7.5 480.203H456.391H456.398H456.406H504.5C508.645 480.203 512 476.844 512 472.703C512 468.559 508.641 465.199 504.5 465.199ZM333.816 290.238L360.305 356.148C360.453 356.516 360.629 356.871 360.832 357.211C365.52 365.016 372.195 371.48 380.145 375.914L388.926 380.809L333.816 363.98V290.238ZM414.602 339.777L482.012 397.406C472.973 403.445 461.336 403.98 451.707 398.629L387.449 362.812C381.953 359.75 377.309 355.316 373.988 349.977L350.379 291.227L385.395 275.941L399.051 316.715C402.051 325.668 407.43 333.641 414.602 339.777ZM221.07 119.078V84.1641C221.07 63.1211 238.191 46 259.234 46C280.277 46 297.398 63.1211 297.398 84.1641V119.078C297.398 140.121 280.277 157.242 259.234 157.242C238.191 157.242 221.07 140.121 221.07 119.078ZM176.398 192.641L227.41 176.625C246.113 170.75 265.887 170.75 284.59 176.625L335.602 192.641C350.922 197.453 363.113 209.414 368.211 224.645L380.613 261.664L344.781 277.301L333.273 248.668C331.934 245.336 328.422 243.418 324.891 244.102C321.363 244.785 318.816 247.875 318.816 251.465V362.031H193.184V251.465C193.184 247.875 190.637 244.785 187.109 244.102C183.59 243.418 180.066 245.336 178.727 248.668L168.766 273.449L133.371 255.75L143.789 224.645C148.887 209.414 161.078 197.453 176.398 192.641ZM97.3945 339.777C104.57 333.641 109.949 325.668 112.945 316.715L128.555 270.113L163.152 287.414L157.699 300.98C156.156 304.824 158.02 309.191 161.863 310.738C165.703 312.281 170.074 310.418 171.617 306.574L178.184 290.242V363.957L124.156 380.207L131.852 375.914C139.801 371.484 146.48 365.02 151.168 357.215C151.371 356.875 151.547 356.52 151.695 356.148L157.301 342.195C158.848 338.352 156.984 333.984 153.141 332.441C149.297 330.895 144.93 332.758 143.383 336.602L138.008 349.977C134.688 355.32 130.047 359.75 124.551 362.812L60.3008 398.625C50.6641 403.98 39.0312 403.445 29.9883 397.406L97.3945 339.777ZM71.6797 465.199H71.6523C60.7539 465.199 52.332 459.469 48.5391 449.473C44.25 438.16 47.1875 424.824 55.6523 416.469L186.785 377.031H325.199L449.691 415.047C459.406 418.012 466.313 425.746 468.164 435.734C470.016 445.723 466.344 455.418 458.336 461.668L453.816 465.203H295.434C294.465 459.945 292.129 452.953 286.602 446.73L301.543 445.906C305.68 445.68 308.848 442.141 308.617 438.004C308.391 433.871 304.852 430.707 300.719 430.93L260.07 433.176C258.352 432.867 256.559 432.609 254.676 432.418L139 420.336C134.852 419.902 131.191 422.898 130.762 427.016C130.332 431.137 133.324 434.824 137.441 435.254L253.125 447.336C254.875 447.516 256.52 447.762 258.059 448.059C258.09 448.066 258.125 448.07 258.156 448.078C273.129 451.016 278.395 459.164 280.211 465.199H71.6797Z" fill="#191919"/>
<path d="M340.016 443.77C340.153 443.77 340.293 443.77 340.434 443.762L391.016 440.969C395.149 440.739 398.317 437.204 398.09 433.067C397.863 428.93 394.321 425.758 390.188 425.993L339.61 428.786C335.473 429.012 332.305 432.551 332.531 436.684C332.754 440.68 336.059 443.77 340.016 443.77Z" fill="#191919"/>
</svg>
