<svg width="512" height="512" viewBox="0 0 512 512" fill="none" xmlns="http://www.w3.org/2000/svg">
<g clip-path="url(#clip0_29_129)">
<path d="M496.13 230.363H474.938V178.082C474.938 168.183 466.884 160.129 456.985 160.129H442.7C441.692 160.129 440.712 160.234 439.747 160.394V132.094C439.747 118.808 428.942 108 415.657 108H392.981C379.696 108 368.887 118.808 368.887 132.094V222.496H352.809C344.571 222.496 337.012 225.453 331.13 230.363H178.868C172.989 225.457 165.43 222.496 157.188 222.496H141.11V132.094C141.11 118.808 130.301 108 117.02 108H94.3439C81.0588 108 70.2501 118.808 70.2501 132.094V160.394C69.2853 160.234 68.3048 160.129 67.297 160.129H53.0118C43.1134 160.129 35.0626 168.183 35.0626 178.082V230.363H13.8711C5.67189 230.363 -1 237.035 -1 245.234V267.512C-1 275.711 5.67189 282.383 13.8711 282.383H35.0587V334.664C35.0587 344.567 43.1134 352.617 53.0118 352.617H67.297C68.3048 352.617 69.2853 352.516 70.2501 352.356V380.657C70.2501 393.942 81.0588 404.75 94.34 404.75H117.02C130.301 404.75 141.11 393.942 141.11 380.657V290.254H157.188C165.43 290.254 172.993 287.293 178.871 282.383H331.126C337.005 287.293 344.567 290.254 352.809 290.254H368.887V329.926C368.887 334.067 372.243 337.426 376.387 337.426C380.528 337.426 383.887 334.067 383.887 329.926V284.051C383.962 283.629 384.005 283.199 384.005 282.754V229.996C384.005 229.555 383.962 229.121 383.887 228.703V132.094C383.887 127.078 387.966 123 392.981 123H415.657C420.669 123 424.747 127.078 424.747 132.094V380.657C424.747 385.672 420.669 389.75 415.657 389.75H392.981C387.966 389.75 383.887 385.672 383.887 380.657V357.879C383.887 353.739 380.528 350.379 376.387 350.379C372.243 350.379 368.887 353.739 368.887 357.879V380.657C368.887 393.942 379.696 404.75 392.981 404.75H415.657C428.942 404.75 439.747 393.942 439.747 380.657V352.356C440.712 352.516 441.692 352.621 442.7 352.621H456.985C466.884 352.621 474.938 344.567 474.938 334.668V282.383H496.13C504.329 282.383 511.001 275.711 511.001 267.512V245.234C511.001 237.035 504.329 230.363 496.13 230.363ZM189.223 245.363H320.778C319.587 248.82 318.93 252.523 318.93 256.375C318.93 260.231 319.587 263.93 320.774 267.383H189.223C190.414 263.93 191.071 260.231 191.071 256.375C191.067 252.52 190.411 248.82 189.223 245.363ZM14 267.383V245.363H35.0626V267.383H14ZM117.02 389.75H94.3439C89.3283 389.75 85.2502 385.672 85.2502 380.657V229.996C85.2502 225.852 81.8947 222.496 77.7502 222.496C73.6056 222.496 70.2501 225.852 70.2501 229.996V334.668C70.2501 336.293 68.9259 337.621 67.297 337.621H53.0118C51.3868 337.621 50.0626 336.293 50.0626 334.668V274.981C50.0626 274.949 50.0665 274.914 50.0665 274.883C50.0665 274.848 50.0626 274.82 50.0626 274.785V237.957C50.0626 237.926 50.0665 237.895 50.0665 237.863C50.0665 237.828 50.0626 237.797 50.0626 237.766V178.082C50.0626 176.453 51.3868 175.129 53.0118 175.129H67.297C68.9259 175.129 70.2501 176.453 70.2501 178.082V196.914C70.2501 201.055 73.6056 204.414 77.7502 204.414C81.8947 204.414 85.2502 201.055 85.2502 196.914V132.09C85.2502 127.078 89.3283 122.996 94.3439 122.996H117.02C122.031 122.996 126.11 127.078 126.11 132.09V228.707C126.039 229.125 125.992 229.555 125.992 229.992V282.754C125.992 283.195 126.039 283.621 126.11 284.043V380.657C126.11 385.672 122.031 389.75 117.02 389.75ZM141.11 275.254V274.961C141.11 274.934 141.114 274.91 141.114 274.883C141.114 274.859 141.11 274.832 141.11 274.805V237.941C141.11 237.914 141.114 237.891 141.114 237.863C141.114 237.84 141.11 237.813 141.11 237.789V237.496H157.188C167.598 237.496 176.067 245.969 176.067 256.379C176.067 266.789 167.598 275.258 157.188 275.258H141.11V275.254ZM352.809 275.254C342.399 275.254 333.93 266.785 333.93 256.375C333.93 245.965 342.399 237.496 352.809 237.496H368.887V237.844V237.863V237.883V274.863V274.883V274.902V275.254H352.809ZM456.985 337.621H442.7C441.071 337.621 439.747 336.297 439.747 334.668V178.082C439.747 176.457 441.071 175.129 442.7 175.129H456.985C458.614 175.129 459.938 176.457 459.938 178.082V237.805C459.938 237.824 459.935 237.844 459.935 237.863C459.935 237.883 459.938 237.902 459.938 237.922V274.824C459.938 274.844 459.935 274.863 459.935 274.883C459.935 274.902 459.938 274.922 459.938 274.942V334.668C459.938 336.297 458.614 337.621 456.985 337.621ZM496.001 267.383H474.938V245.363H496.001V267.383Z" fill="#B97456"/>
</g>
<defs>
<clipPath id="clip0_29_129">
<rect width="512" height="512" fill="white"/>
</clipPath>
</defs>
</svg>
