<svg width="512" height="512" viewBox="0 0 512 512" fill="none" xmlns="http://www.w3.org/2000/svg">
<g clip-path="url(#clip0_29_131)">
<path d="M511.918 278.016L502.055 131.918C501.48 123.508 494.691 117.031 486.258 116.859C476.59 116.68 467.09 120.477 460.242 127.324C454.234 133.332 450.558 141.305 449.894 149.773C449.887 149.867 449.883 149.961 449.879 150.055L445.293 261.609C445.234 262.098 445.016 262.555 444.668 262.898L401.031 306.543C399.992 307.582 398.605 308.156 397.133 308.156C395.656 308.156 394.269 307.582 393.226 306.535C392.184 305.492 391.605 304.101 391.601 302.644C391.605 301.16 392.184 299.769 393.223 298.726L424.394 267.551C435.391 256.555 435.391 238.668 424.402 227.672C419.078 222.352 412 219.414 404.453 219.406C396.922 219.414 389.844 222.352 384.523 227.676L307.141 305.07C289.824 322.387 280.059 345.414 279.645 369.906L278.773 422.105C271.27 422.5 265.281 428.715 265.281 436.312V496.355C265.281 504.215 271.676 510.605 279.531 510.605H349.348C353.492 510.605 356.848 507.25 356.848 503.105C356.848 498.965 353.492 495.605 349.348 495.605H280.281V437.066H392.082C392.105 437.066 392.125 437.07 392.144 437.07H392.223C392.25 437.07 392.273 437.066 392.301 437.066H395.07V495.605H378.832C374.687 495.605 371.332 498.965 371.332 503.105C371.332 507.25 374.687 510.605 378.832 510.605H395.824C403.68 510.605 410.07 504.215 410.07 496.355V436.312C410.07 429.867 405.769 424.418 399.887 422.664C400.621 412.297 405.004 402.637 412.414 395.23L501.285 306.344C508.754 298.875 512.629 288.551 511.918 278.016ZM490.676 295.738L401.805 384.625C391.707 394.723 385.773 407.922 384.887 422.066H293.777L294.645 370.16C294.992 349.578 303.195 330.23 317.75 315.676L395.129 238.281C397.625 235.789 400.941 234.414 404.453 234.406C407.984 234.414 411.301 235.789 413.797 238.281C418.937 243.426 418.937 251.801 413.789 256.945L382.617 288.121C378.75 291.988 376.613 297.137 376.605 302.644C376.613 308.125 378.75 313.273 382.617 317.141C386.492 321.019 391.648 323.156 397.129 323.156H397.137C402.613 323.156 407.766 321.023 411.641 317.148L455.277 273.504C458.168 270.613 459.937 266.773 460.258 262.691C460.262 262.598 460.269 262.508 460.273 262.414L464.859 150.82C465.273 145.957 467.398 141.383 470.851 137.93C474.883 133.898 480.258 131.738 485.949 131.855C486.558 131.867 487.047 132.336 487.09 132.934L496.949 279.023C497.371 285.238 495.086 291.332 490.676 295.738Z" fill="#B97456"/>
<path d="M233.227 422.105L232.355 369.906C231.941 345.418 222.176 322.391 204.859 305.07C201.93 302.141 197.18 302.141 194.254 305.07C191.324 308 191.324 312.75 194.254 315.676C208.805 330.23 217.008 349.578 217.355 370.156L218.223 422.066H127.113C126.227 407.918 120.289 394.723 110.195 384.625L21.3243 295.738C16.918 291.332 14.629 285.238 15.0508 279.023L24.9141 132.938C24.9532 132.332 25.4414 131.867 26.0469 131.855C31.7539 131.73 37.1172 133.898 41.1485 137.93C44.6055 141.383 46.7266 145.957 47.1407 150.82L51.7266 262.414C51.7305 262.508 51.7383 262.598 51.7461 262.691C52.0625 266.769 53.8321 270.613 56.7227 273.504L100.359 317.144C104.234 321.023 109.387 323.156 114.867 323.156H114.871C120.352 323.156 125.508 321.019 129.383 317.141C133.25 313.269 135.387 308.125 135.398 302.617C135.387 297.137 133.25 291.988 129.383 288.121L98.2109 256.945C93.0625 251.801 93.0625 243.426 98.2031 238.281C100.695 235.789 104.016 234.414 107.527 234.406C111.059 234.414 114.375 235.789 116.867 238.281L169.559 290.98C172.484 293.91 177.234 293.906 180.164 290.98C183.094 288.051 183.094 283.301 180.164 280.375L127.477 227.676C122.152 222.355 115.074 219.418 107.527 219.406C99.9961 219.418 92.918 222.352 87.5977 227.676C76.6055 238.668 76.6094 256.559 87.6016 267.551L118.773 298.73C119.816 299.773 120.391 301.164 120.395 302.617C120.391 304.101 119.816 305.492 118.773 306.539C117.727 307.582 116.34 308.156 114.863 308.156C113.391 308.16 112.008 307.586 110.965 306.543L67.3321 262.902C66.9844 262.555 66.7656 262.102 66.7071 261.609L62.1211 150.055C62.1172 149.961 62.1133 149.867 62.1055 149.777C61.4375 141.309 57.7657 133.336 51.7578 127.324C44.9102 120.477 35.4453 116.672 25.7383 116.859C17.3086 117.035 10.5157 123.508 9.94536 131.926L0.0820855 278.016C-0.628851 288.551 3.25005 298.875 10.7149 306.344L99.5898 395.23C106.996 402.641 111.379 412.297 112.113 422.664C106.23 424.418 101.93 429.871 101.93 436.316V496.359C101.93 504.215 108.32 510.609 116.176 510.609H232.469C240.324 510.609 246.715 504.215 246.715 496.359V436.316C246.715 428.715 240.73 422.504 233.227 422.105ZM231.715 495.609H116.93V437.066H119.695C119.723 437.066 119.75 437.07 119.773 437.07H119.852C119.875 437.07 119.895 437.07 119.918 437.066H231.715V495.609Z" fill="#B97456"/>
<path d="M179.883 244.226C179.883 248.371 183.242 251.726 187.383 251.726H190.426H300.324C304.465 251.726 307.824 248.371 307.824 244.226C307.824 240.086 304.465 236.726 300.324 236.726H196.016C197.574 231.621 200.695 227.027 205.031 222.812H314.113C320.469 228.992 324.262 235.976 324.262 244.226C324.262 248.371 327.617 251.726 331.762 251.726C335.902 251.726 339.262 248.371 339.262 244.226C339.262 214.953 310.945 199.094 279.211 185.547C310.945 172 339.262 156.137 339.262 126.863C339.262 97.5898 310.945 81.7265 279.211 68.1836C310.945 54.6367 339.262 38.7734 339.262 9.5C339.262 5.35547 335.902 2 331.762 2C331.144 2 330.551 2.08203 329.976 2.22266C329.402 2.08203 328.809 2 328.191 2H217.336C213.195 2 209.836 5.35547 209.836 9.5C209.836 13.6445 213.195 17 217.336 17H323.129C321.57 22.1094 318.445 26.6992 314.113 30.914H205.031C198.676 24.7344 194.883 17.75 194.883 9.5C194.883 5.35547 191.527 2 187.383 2C183.242 2 179.883 5.35547 179.883 9.5C179.883 38.7734 208.199 54.6367 239.934 68.1836C208.199 81.7265 179.883 97.5898 179.883 126.863C179.883 156.137 208.199 172 239.934 185.547C208.199 199.094 179.883 214.953 179.883 244.226ZM227.426 207.812C237.109 202.863 248.187 198.277 259.57 193.644C270.957 198.277 282.031 202.863 291.719 207.812H227.426ZM205.629 104.883H313.516C318.156 109.25 321.5 114.027 323.129 119.363H196.016C197.645 114.027 200.984 109.25 205.629 104.883ZM228.531 89.8828C237.949 85.1445 248.621 80.7343 259.57 76.2773C270.523 80.7343 281.195 85.1445 290.613 89.8828H228.531ZM323.129 134.363C321.5 139.703 318.156 144.476 313.516 148.848H205.629C200.984 144.476 197.645 139.703 196.016 134.363H323.129ZM290.613 163.848C281.195 168.582 270.519 172.992 259.57 177.449C248.621 172.992 237.945 168.586 228.531 163.848H290.613ZM259.57 60.0859C248.187 55.4531 237.109 50.8672 227.426 45.914H291.719C282.031 50.8672 270.957 55.4531 259.57 60.0859Z" fill="#B97456"/>
</g>
<defs>
<clipPath id="clip0_29_131">
<rect width="512" height="512" fill="white"/>
</clipPath>
</defs>
</svg>
