<svg width="512" height="512" viewBox="0 0 512 512" fill="none" xmlns="http://www.w3.org/2000/svg">
<path d="M504.495 414.636H498.488V395.359C498.488 395.3 498.48 395.246 498.476 395.191C498.476 395.078 498.468 394.96 498.46 394.847C498.448 394.683 498.433 394.519 498.409 394.355C498.394 394.242 498.378 394.128 498.359 394.015C498.327 393.847 498.288 393.679 498.249 393.515C498.222 393.41 498.195 393.304 498.163 393.199C498.109 393.015 498.042 392.835 497.972 392.652C497.948 392.585 497.933 392.519 497.902 392.453L436.722 246.683C434.566 241.543 433.496 236.062 433.546 230.387C433.691 213.187 430.222 196.586 423.242 181.047C415.828 164.543 404.48 149.75 390.417 138.231C386.894 134.856 383.324 131.68 379.503 128.531C376.308 125.895 371.578 126.352 368.941 129.551C366.304 132.746 366.757 137.477 369.961 140.113C372.007 141.805 373.98 143.5 375.91 145.238L343.554 200.715C318.265 171.898 281.199 153.676 239.957 153.676C230.98 153.676 222.203 154.551 213.699 156.199C213.555 156.219 213.414 156.246 213.269 156.281C204.051 158.098 195.152 160.832 186.687 164.395L167.527 170.266L158.313 147.301L191.797 129.547C195.461 127.606 196.855 123.063 194.914 119.399C194.121 117.906 192.894 116.797 191.473 116.133C206.859 100.828 232.488 94.6681 267.949 97.8048C294.574 100.164 320.074 108.285 343.734 121.942C347.324 124.012 351.914 122.785 353.988 119.195C356.058 115.606 354.828 111.016 351.238 108.942C325.668 94.1838 298.093 85.4064 269.273 82.8557C223.754 78.8283 191.836 89.0471 174.203 113.231C169.035 107.445 161.789 103.582 153.664 102.805L127.672 100.305C119.274 99.4923 111.063 102.004 104.551 107.379C98.0431 112.754 94.0158 120.336 93.2111 128.727L92.6721 134.297C91.8127 143.281 94.8947 151.984 100.66 158.426L6.47304 203.211C2.37539 205.16 -0.163664 209.348 0.00820975 213.883C0.180085 218.414 3.02383 222.402 7.25429 224.035L21.3871 229.492C24.0589 230.523 26.8871 231.039 29.7152 231.039C32.2074 231.039 34.6995 230.637 37.0902 229.832L142.234 194.418C129.512 207.223 119.281 222.512 112.328 239.484C112.113 239.894 111.938 240.328 111.805 240.769C105.535 256.523 102.086 273.695 102.086 291.656C102.086 298.996 102.664 306.195 103.774 313.226C103.801 313.55 103.86 313.867 103.93 314.179C111.164 358.078 139.16 395.058 177.465 414.632H163.133C158.988 414.632 155.629 417.992 155.629 422.136C155.629 426.281 158.988 429.64 163.133 429.64H504.495C508.64 429.64 511.999 426.281 511.999 422.136C511.999 417.992 508.64 414.636 504.495 414.636ZM409.55 187.195C415.64 200.75 418.664 215.238 418.535 230.262C418.472 237.984 419.933 245.461 422.882 252.488L480.019 388.625L462.906 389.859L456.804 390.296L365.472 234.582C362.093 227.168 358.074 220.109 353.492 213.465L387.289 155.523C396.632 164.578 404.246 175.387 409.55 187.195ZM339.785 363.269C317.308 371.468 293.679 375.636 269.508 375.636C212.133 375.636 157.176 351.429 118.344 309.164C117.527 303.445 117.094 297.601 117.094 291.66C117.094 279.879 118.762 268.48 121.867 257.683C132.629 269.367 144.539 279.957 157.441 289.23C158.766 290.183 160.297 290.644 161.816 290.644C164.148 290.644 166.449 289.558 167.914 287.519C170.336 284.156 169.566 279.465 166.203 277.047C152.012 266.844 139.094 254.945 127.715 241.672C136.332 222.363 149.77 205.672 166.5 193.144C199.727 237.195 251.719 263.285 307.105 263.285C324.308 263.285 341.234 260.82 357.535 255.949C360.968 267.258 362.824 279.246 362.824 291.66C362.824 296.843 362.496 301.953 361.871 306.972C339.836 314.261 316.816 317.957 293.371 317.957C258.566 317.957 225.305 309.996 194.508 294.304C190.812 292.422 186.293 293.89 184.414 297.582C182.531 301.273 184 305.793 187.691 307.675C220.617 324.457 256.172 332.964 293.371 332.964C315.597 332.964 337.476 329.843 358.586 323.695C354.699 338.097 348.261 351.461 339.785 363.269ZM338.582 218.402L352.129 241.496C352.179 241.609 352.23 241.73 352.281 241.844C337.672 246.113 322.511 248.277 307.105 248.277C256.769 248.277 209.492 224.715 179.07 184.879C183.18 182.523 187.441 180.395 191.832 178.516L216.629 170.918C224.183 169.461 231.984 168.684 239.961 168.684C280.304 168.684 316.168 188.254 338.582 218.402ZM107.613 135.742L108.152 130.172C108.578 125.758 110.692 121.777 114.11 118.957C117.524 116.137 121.836 114.824 126.234 115.246L152.231 117.746C157.922 118.293 162.797 121.715 165.34 126.586L145.457 137.129L115.395 151.422C110.125 148.148 107.008 142.07 107.613 135.742ZM32.3011 215.613C30.512 216.215 28.5589 216.172 26.7933 215.492L20.6175 213.109L118.5 166.566C118.543 166.547 118.582 166.527 118.625 166.504L144.844 154.039L145.699 156.172L153.211 174.887L32.3011 215.613ZM125.879 337.312C165.617 371.472 216.605 390.644 269.508 390.644C286.687 390.644 303.617 388.675 320.105 384.792C298.574 403.382 270.554 414.636 239.957 414.636C188.32 414.636 144.024 382.582 125.879 337.312ZM349.988 374.71C350.445 374.234 350.839 373.707 351.156 373.136C363.707 356.023 372.414 335.918 375.996 314.109C376.039 313.902 376.074 313.691 376.101 313.476C377.234 306.367 377.832 299.082 377.832 291.66C377.832 289.441 377.773 287.238 377.668 285.043L443.273 396.894L425.402 414.632H302.453C321.164 405.074 337.414 391.355 349.988 374.71ZM446.706 414.636L456.007 405.406L483.48 403.421V414.636H446.706Z" fill="#191919"/>
</svg>
