<svg width="1920" height="1440" viewBox="0 0 1920 1440" fill="none" xmlns="http://www.w3.org/2000/svg">
<g clip-path="url(#clip0_38_132)">
<rect width="1920" height="1440" fill="white"/>
<path opacity="0.1" d="M-172.23 674.228C-107.475 692.954 -42.7213 711.676 14.4385 698.196C71.5983 684.716 97.5 620.271 165.03 569.198C218.5 528.759 295.773 513.679 336.509 528.759C415.5 558 488.801 662.816 545.961 649.336C603.12 635.856 609.015 405.006 666.174 391.526C723.334 378.047 797.581 437.024 854.741 423.544C911.901 410.064 951.974 324.127 1009.13 310.648C1066.29 297.168 1452.67 383.326 1215.56 451.785C853.655 523.366 1166.24 171.966 1371.14 184.866C1488.23 192.237 1470.84 395.95 1574.83 406.701C1788.16 428.755 1921.44 95.5408 1655.16 98.9632C1538.82 100.458 1565.89 287.175 1917.79 325.823" stroke="#191919"/>
</g>
<defs>
<clipPath id="clip0_38_132">
<rect width="1920" height="1440" fill="white"/>
</clipPath>
</defs>
</svg>
