<svg width="512" height="512" viewBox="0 0 512 512" fill="none" xmlns="http://www.w3.org/2000/svg">
<path d="M504.5 446.32H355.859C384.902 428.441 404.309 396.355 404.309 359.816V354.695H409.75C433.805 354.695 453.375 335.125 453.375 311.07V298.547C453.375 280.883 439.004 266.516 421.344 266.516C415.086 266.516 409.246 268.324 404.309 271.437V260.308C404.309 249.621 398.164 240.082 388.555 235.625C388.449 235.543 388.348 235.453 388.238 235.375L270.164 148.777L248.074 127.996C246.379 126.402 244.57 124.933 242.68 123.574C246.348 121.312 249.57 118.242 252.074 114.473L262.848 98.2616C266.176 93.2421 267.934 87.4257 267.934 81.4374C267.934 71.2187 262.855 61.7343 254.348 56.0702C240.367 46.7929 221.441 50.6093 212.156 64.578L201.387 80.7812C197.652 86.4023 196.008 92.9023 196.355 99.2851C192.848 98.914 189.266 99.2343 185.84 100.277C179.066 102.348 173.355 107.094 170.082 113.359L168.059 116.242C165.676 119.629 166.492 124.308 169.883 126.691C173.27 129.074 177.949 128.258 180.332 124.867L182.664 121.551C182.887 121.234 183.086 120.898 183.254 120.551C184.676 117.668 187.148 115.566 190.219 114.629C193.289 113.691 196.516 114.055 199.301 115.652L205.793 119.375C205.832 119.398 205.871 119.418 205.906 119.441L230.695 133.656C233.258 135.129 235.645 136.898 237.797 138.926L256.512 156.527L247.523 179.277L221.625 165.437L211.797 159.332C208.273 157.144 203.652 158.226 201.465 161.742C199.281 165.262 200.359 169.887 203.879 172.074L208.102 174.695L182.922 224.801L127.465 200.082L160.84 152.601C163.223 149.211 162.406 144.535 159.016 142.152C155.629 139.769 150.949 140.586 148.566 143.973L109.953 198.91C109.918 198.965 109.887 199.019 109.852 199.074C109.758 199.215 109.664 199.359 109.582 199.508C109.523 199.605 109.473 199.703 109.426 199.805C109.383 199.883 109.34 199.953 109.301 200.035L104.809 209.598C98.2187 223.617 98.0703 239.769 104.395 253.914C107.262 260.324 111.332 266.012 116.301 270.734C115.215 273.504 115.312 276.66 116.711 279.43L130.828 307.203L78.7109 414.133C73.7227 424.363 74.3438 436.238 80.3789 445.894C80.4688 446.039 80.5703 446.176 80.6641 446.32H7.5C3.35938 446.32 0 449.676 0 453.82C0 457.961 3.35938 461.32 7.5 461.32H504.5C508.641 461.32 512 457.961 512 453.82C512 449.676 508.641 446.32 504.5 446.32ZM404.312 298.547C404.312 289.156 411.949 281.516 421.34 281.516C430.73 281.516 438.371 289.156 438.371 298.547V311.07C438.371 326.851 425.531 339.691 409.75 339.691H404.312V298.547ZM213.883 89.0858L224.648 72.8788C227.621 68.414 232.531 65.996 237.531 65.996C240.461 65.996 243.422 66.828 246.039 68.5624C250.355 71.4335 252.93 76.246 252.93 81.4374C252.93 84.4648 252.035 87.4179 250.348 89.9608L239.578 106.168C236.27 111.148 230.504 113.719 224.66 112.906L214.559 107.109C210.5 101.914 210.18 94.6562 213.883 89.0858ZM248.68 434.98H272.07L284.016 446.316H248.68V434.98ZM381.168 259.226C384 259.074 386.59 258.066 388.672 256.414C389.082 257.648 389.309 258.957 389.309 260.308V359.816C389.309 406.531 352.086 444.707 305.75 446.262L282.168 423.879L276.965 383.051H282.129C309.379 383.051 333.512 369.527 348.223 348.855V354.047C348.223 358.187 351.582 361.547 355.723 361.547C359.867 361.547 363.223 358.187 363.223 354.047V301.953C363.223 301.945 363.223 301.937 363.223 301.933V260.308C363.223 259.582 363.293 258.863 363.418 258.16C366.852 259.082 370.398 259.558 373.996 259.558C374.746 259.558 375.496 259.539 376.25 259.496L381.168 259.226ZM360.488 240.762C360.387 240.699 360.285 240.641 360.18 240.582L260.82 186.445L268.758 166.351L375.34 244.519C370.105 244.781 364.973 243.488 360.488 240.762ZM118.383 215.976L119.75 213.074L128.211 216.855L183.305 241.394L183.355 241.418L246.52 269.551C247.082 269.805 247.48 270.34 247.559 270.953L254.949 328.945C255.473 333.055 259.223 335.965 263.336 335.437C267.445 334.914 270.355 331.156 269.828 327.047L262.441 269.055C261.703 263.277 257.941 258.219 252.621 255.848L196.641 230.914L221.129 182.18L247.852 196.465L349.551 251.875C348.676 254.57 348.223 257.406 348.223 260.308V301.949C348.223 338.394 318.574 368.047 282.133 368.047H275.055L273.465 355.578C272.941 351.469 269.191 348.562 265.074 349.082C260.965 349.605 258.059 353.363 258.582 357.473L260.973 376.234C260.984 376.344 261 376.449 261.012 376.558L266.547 419.976H246.699L208.527 297.195C206.895 291.941 202.781 287.82 197.531 286.168L145.375 269.785C145.34 269.773 145.309 269.766 145.277 269.754L141.992 268.773C131.34 265.586 122.625 257.937 118.086 247.789C113.547 237.637 113.656 226.043 118.383 215.976ZM179.008 321.008L184.93 297.933L193.035 300.484C193.594 300.656 194.027 301.094 194.203 301.652L215.496 370.141C213.812 370.66 212.152 371.281 210.523 372.004L163.012 393.223L179.008 321.008ZM137.695 283.144L140.93 284.113L170.598 293.433L166.52 309.316L144.566 301.125L134.973 282.25C135.867 282.574 136.777 282.871 137.695 283.144ZM92.1953 420.707L142.965 316.543L162.977 324.008L145.145 404.527C144.531 407.293 145.527 410.168 147.727 411.961C149.922 413.754 152.941 414.152 155.527 412.996L216.625 385.707C217.715 385.223 218.832 384.832 219.957 384.484L233.68 428.617V446.316H108.207C102.023 446.316 96.375 443.183 93.1016 437.941C89.8242 432.703 89.4883 426.262 92.1953 420.707Z" fill="#191919"/>
</svg>
