<svg width="512" height="512" viewBox="0 0 512 512" fill="none" xmlns="http://www.w3.org/2000/svg">
<path d="M512 355.739C512 350.497 509.039 346.02 504.453 344.341C500.25 342.798 495.605 344.075 492.621 347.602L483.801 358.017L462.16 270.989C460.68 264.993 456.02 260.395 449.992 258.985L388.754 244.727L422.324 193.712L437.922 173.712C440.203 170.79 440.004 166.638 437.453 163.942L435.242 161.606L440.695 156.63C444.016 153.599 445.937 149.458 446.105 144.962C446.273 140.466 444.664 136.185 441.574 132.911L437.223 128.302C431.992 122.782 423.695 121.501 417.051 125.185L406.371 131.114L406.09 130.817C403.199 127.763 398.789 126.747 394.852 128.216C390.914 129.692 388.258 133.356 388.082 137.56L387.926 141.352L364.984 154.091L341.246 146.907C341.242 146.907 341.242 146.907 341.242 146.903L300.734 134.403C300.672 134.384 300.605 134.364 300.539 134.345C290.508 131.548 279.648 133.376 271.102 139.22C270.27 134.091 268.137 129.231 264.805 125.063L249.168 105.489C238.637 92.3056 219.344 90.1494 206.16 100.677L201.98 104.017C195.594 109.118 191.578 116.399 190.668 124.524C189.762 132.649 192.07 140.638 197.172 147.024L212.809 166.599C215.988 170.579 219.973 173.544 224.34 175.47C216.441 183.282 212.453 194.474 213.816 205.649L229.508 333.759L226.277 337.243L207.32 334.821C203.207 334.294 199.453 337.2 198.93 341.31C198.406 345.419 201.309 349.177 205.418 349.7L221.652 351.774V376.911L175.105 372.145C175.102 372.145 175.098 372.145 175.094 372.145C175.09 372.145 175.086 372.142 175.078 372.142L136.461 368.329C132.328 367.927 128.664 370.935 128.258 375.056C127.852 379.177 130.863 382.849 134.984 383.259L166.84 386.403V403.821H135.723C135.695 403.821 135.672 403.825 135.645 403.825H108.902V401.036C108.902 390.005 102.695 380.399 93.5898 375.52C97.3477 371.032 99.9102 365.517 100.785 359.458H104.426C110.16 359.458 115.754 357.548 120.605 353.931L133.73 344.099C136.391 342.114 139.352 341.263 142.285 341.634L173.391 345.61C177.5 346.138 181.258 343.227 181.781 339.122C182.305 335.013 179.398 331.255 175.289 330.731L144.18 326.755C137.402 325.895 130.508 327.786 124.746 332.087L111.625 341.915C109.395 343.579 106.902 344.458 104.422 344.458H100.785C98.5313 328.845 85.0664 316.81 68.8398 316.81H41.957C24.1562 316.81 9.67578 331.29 9.67578 349.091V354.825C9.67578 362.384 12.293 369.341 16.6602 374.845C6.82812 379.47 0 389.47 0 401.036V406.876C0 413.462 5.35937 418.821 11.9453 418.821L480.469 418.825H504.5C508.57 418.825 512 415.395 512 411.325V355.739ZM497 365.638V390.29L489.566 381.188L488.266 375.95L497 365.638ZM322.488 403.825L320.41 398.368C317.645 391.091 311.625 386.13 304.703 385.419L296.734 384.603L311.578 362.036L435.426 376.02L439.09 385.935L438.852 403.825H322.488ZM181.84 387.915L303.176 400.341C304.18 400.442 305.562 401.52 306.391 403.696L306.438 403.821H181.84V387.915ZM320.824 347.981L344.848 311.462L339.625 350.106L320.824 347.981ZM454.008 392.134H479.137L488.684 403.821H453.852L454.008 392.134ZM446.586 273.595C447.09 273.712 447.477 274.091 447.602 274.595L472.641 375.302C472.672 375.423 472.703 375.54 472.738 375.653L473.102 377.13H451.828L447.891 366.481C447.848 366.364 447.805 366.251 447.754 366.138L425.734 306.626C423.633 300.938 418.594 296.903 412.594 296.091L390.062 293.04C385.953 292.485 382.18 295.36 381.625 299.466C381.07 303.571 383.945 307.349 388.051 307.903L410.578 310.954C411.074 311.02 411.492 311.356 411.668 311.833L429.586 360.263L354.535 351.79L363.898 282.493L379.961 258.083L446.586 273.595ZM403.477 149.876L418.977 166.247C418.984 166.259 418.992 166.267 419 166.278C419.02 166.298 419.039 166.313 419.059 166.337L422.129 169.575L415.59 177.958L401.996 164.075L402.562 150.384L403.477 149.876ZM424.324 138.302C424.984 137.935 425.809 138.067 426.32 138.606L430.664 143.208C431.059 143.626 431.129 144.087 431.113 144.403C431.102 144.716 431 145.169 430.582 145.552L424.93 150.712L417.016 142.356L424.324 138.302ZM369.488 168.747L387.195 158.915L386.988 163.938L367.191 185.286L338.746 176.669L341.375 169.532L343.664 163.313L363.676 169.368C365.617 169.954 367.715 169.731 369.488 168.747ZM342.5 211.915L324.105 187.923L326.812 188.724L355.848 197.52L342.5 211.915ZM296.418 148.77L329.301 158.919L325.191 170.075L324.355 172.349L314.996 169.575C314.715 169.493 314.43 169.427 314.141 169.376C309.812 168.63 305.551 170.575 303.277 174.337C301.004 178.099 301.266 182.786 303.938 186.27L332.152 223.071L290.355 268.142L263.945 227.067C261.449 223.196 256.66 221.532 252.305 223.02C247.949 224.505 245.176 228.743 245.562 233.329L246.855 248.685L234.605 252.028L228.703 203.833C227.801 196.415 230.914 188.977 236.828 184.431L247.785 176.005C250.609 174.907 253.324 173.399 255.816 171.411L259.992 168.071C262.086 166.399 263.922 164.489 265.477 162.399L278.648 152.263C283.668 148.399 290.305 147.095 296.418 148.77ZM265.777 294.645L262.34 253.813C262.34 253.802 262.336 253.79 262.336 253.778L262.191 252.071L279.824 279.501L265.777 294.645ZM242.855 319.364L236.449 267.071L248.137 263.884L251.98 309.528L242.855 319.364ZM208.891 137.665C206.289 134.407 205.109 130.333 205.574 126.192C206.039 122.052 208.086 118.337 211.344 115.735L215.523 112.399C222.242 107.032 232.078 108.13 237.445 114.849L253.086 134.423C255.687 137.681 256.863 141.755 256.398 145.895C256.152 148.095 255.449 150.169 254.363 152.024L240.617 162.591C234.848 164.071 228.48 162.185 224.527 157.239L208.891 137.665ZM236.652 348.114L236.738 348.02L251.469 332.138L265.23 317.302C265.242 317.286 265.258 317.27 265.27 317.251L394.516 177.876L406.637 190.259L350.422 275.685C350.395 275.727 350.367 275.77 350.34 275.813C350.328 275.833 350.316 275.852 350.305 275.872C350.277 275.911 350.254 275.95 350.23 275.989L279.91 382.88L236.652 378.446V348.114ZM24.6758 349.091C24.6758 339.56 32.4258 331.81 41.957 331.81H68.8398C78.3672 331.81 86.1211 339.56 86.1211 349.091V354.825C86.1211 364.356 78.3672 372.106 68.8398 372.106H41.957C32.4258 372.106 24.6758 364.356 24.6758 354.825V349.091ZM15 401.036C15 393.356 21.2461 387.106 28.9297 387.106H79.9727C87.6523 387.106 93.9023 393.356 93.9023 401.036V403.821H15V401.036Z" fill="#191919"/>
</svg>
