<svg width="512" height="512" viewBox="0 0 512 512" fill="none" xmlns="http://www.w3.org/2000/svg">
<path d="M257.562 198.66C236.461 198.66 219.293 213.008 219.293 230.645C219.293 248.277 236.461 262.629 257.562 262.629C278.664 262.629 295.832 248.277 295.832 230.645C295.832 213.008 278.664 198.66 257.562 198.66ZM257.562 247.629C244.949 247.629 234.293 239.848 234.293 230.645C234.293 221.438 244.949 213.66 257.562 213.66C270.176 213.66 280.832 221.438 280.832 230.645C280.832 239.848 270.176 247.629 257.562 247.629Z" fill="#191919"/>
<path d="M257.562 278.07C238.426 278.07 222.855 291.145 222.855 307.219C222.855 323.293 238.426 336.367 257.562 336.367C276.699 336.367 292.27 323.293 292.27 307.219C292.27 291.145 276.699 278.07 257.562 278.07ZM257.562 321.367C246.883 321.367 237.855 314.891 237.855 307.219C237.855 299.551 246.883 293.07 257.562 293.07C268.246 293.07 277.27 299.551 277.27 307.219C277.27 314.891 268.246 321.367 257.562 321.367Z" fill="#191919"/>
<path d="M257.563 351.812C240.539 351.812 226.691 363.52 226.691 377.906C226.691 392.297 240.539 404.004 257.563 404.004C274.586 404.004 288.434 392.297 288.434 377.906C288.434 363.52 274.586 351.812 257.563 351.812ZM257.563 389.004C248.961 389.004 241.691 383.922 241.691 377.906C241.691 371.895 248.961 366.812 257.563 366.812C266.164 366.812 273.434 371.895 273.434 377.906C273.434 383.922 266.164 389.004 257.563 389.004Z" fill="#191919"/>
<path d="M410.5 178.285L350.816 228.367C349.121 229.793 348.141 231.898 348.141 234.113V418.621H164.895V401.926C164.895 397.781 161.535 394.426 157.395 394.426C153.25 394.426 149.895 397.781 149.895 401.926V419.445H148.531C140.957 419.445 134.793 426.23 134.793 434.562V504.5C134.793 508.641 138.152 512 142.293 512C146.437 512 149.793 508.641 149.793 504.5V434.562C149.793 434.523 149.793 434.484 149.797 434.445H363.238C363.242 434.484 363.242 434.523 363.242 434.562V504.5C363.242 508.641 366.602 512 370.742 512C374.883 512 378.242 508.641 378.242 504.5V434.562C378.242 426.23 372.078 419.445 364.508 419.445H363.137V237.609L420.141 189.777C423.312 187.113 423.727 182.383 421.066 179.211C418.406 176.039 413.672 175.625 410.5 178.285Z" fill="#191919"/>
<path d="M464.074 111.781C457.11 92.6484 439.446 80.2812 419.078 80.2812H319.656V57.3672C319.656 25.7344 293.926 0 262.293 0H250.746C219.113 0 193.379 25.7344 193.379 57.3672V80.2812H93.9533C73.4377 80.2812 55.7346 92.7695 48.8518 112.094C41.969 131.418 47.7932 152.281 63.6877 165.254L149.895 235.602V361.012C149.895 365.152 153.25 368.512 157.395 368.512C161.535 368.512 164.895 365.152 164.895 361.012V232.039C164.895 229.789 163.883 227.656 162.137 226.23L73.1721 153.629C59.9221 142.82 59.2229 127.688 62.9807 117.129C66.7424 106.566 76.8557 95.2812 93.9533 95.2812H193.383V111.445C193.383 121.75 196.125 131.418 200.903 139.785H154.11C149.969 139.785 146.61 143.145 146.61 147.285C146.61 151.43 149.969 154.785 154.11 154.785H213.227C223.293 163.512 236.41 168.812 250.746 168.812H262.293C276.633 168.812 289.746 163.512 299.813 154.785H358.926C363.067 154.785 366.426 151.43 366.426 147.285C366.426 143.145 363.067 139.785 358.926 139.785H312.141C316.914 131.418 319.66 121.75 319.66 111.445V95.2812H419.082C436.059 95.2812 446.176 106.457 449.981 116.914C453.789 127.371 453.223 142.434 440.223 153.348C437.051 156.008 436.637 160.738 439.301 163.91C440.785 165.68 442.906 166.59 445.051 166.59C446.75 166.59 448.461 166.016 449.867 164.836C465.465 151.742 471.043 130.918 464.074 111.781ZM250.746 153.812C227.387 153.812 208.379 134.809 208.379 111.445V57.3672C208.379 34.0078 227.387 15 250.746 15H262.293C285.653 15 304.656 34.0078 304.656 57.3672V111.445C304.656 134.809 285.653 153.812 262.293 153.812H250.746Z" fill="#191919"/>
</svg>
